<?xml version="1.0" encoding="UTF-8"?> <svg xmlns="http://www.w3.org/2000/svg" width="306" height="33" viewBox="0 0 306 33"><g><g><g><path fill="#fff" d="M28.296 22.677l5.47-12.106 5.397 12.106zm5.251-22.68L19.035 31.574h5.25l2.115-4.667H41.06l2.115 4.667h5.25L33.84-.003z"></path></g><g><path fill="#fff" d="M66.073 13.707c-3.72-1.604-6.637-2.48-6.637-4.886 0-2.188 2.261-3.938 5.105-3.938 2.261 0 4.376 1.167 5.324 3.282l3.573-2.48C72.272 2.185 68.917.07 64.541.07c-5.542 0-9.99 3.5-9.99 8.605 0 4.886 4.01 6.71 7.657 8.314 3.573 1.531 7.657 3.282 7.657 6.126 0 2.333-2.625 4.01-6.126 4.01-2.99 0-5.542-1.385-6.928-3.791l-3.865 2.77c1.75 3.574 5.615 5.98 10.72 5.98 6.272 0 11.012-3.5 11.012-9.042.073-4.886-3.72-7.22-8.605-9.335z"></path></g><g><path fill="#fff" d="M94.149 13.708c-3.792-1.605-6.636-2.48-6.636-4.886 0-2.188 2.26-3.939 5.104-3.939 2.261 0 4.376 1.167 5.324 3.282l3.574-2.48c-1.24-3.427-4.595-5.542-8.97-5.542-5.543 0-9.991 3.5-9.991 8.606 0 4.886 4.01 6.709 7.657 8.313 3.573 1.532 7.657 3.282 7.657 6.126 0 2.334-2.625 4.011-6.126 4.011-2.99 0-5.542-1.386-6.928-3.792l-3.865 2.771c1.75 3.573 5.616 5.98 10.72 5.98 6.272 0 11.012-3.5 11.012-9.043.146-4.959-3.646-7.293-8.532-9.407z"></path></g><g><path fill="#fff" d="M110.923 31.574h18.45v-4.813H115.81v-8.605h11.668v-4.813H115.81v-7.95h13.564V.654h-18.45z"></path></g><g><path fill="#fff" d="M136.3 5.467h8.242v26.107h4.886V5.467h8.313V.653h-21.44z"></path></g><g><path fill="#fff" d="M190.12 14.728L183.777.653h-.656l-6.272 14.148L172.545.653h-8.897l10.356 31.14h2.26l7.147-15.314 7.22 15.314h2.26L203.249.653h-8.898z"></path></g><g><path fill="#fff" d="M257.213 14.218h-3.354V8.019h3.354c1.75 0 3.355 1.167 3.355 3.136 0 1.896-1.605 3.136-3.355 3.063zm11.668-3.5c0-5.543-4.813-10.065-11.449-10.065h-11.741l.073 30.921h8.24V18.156l8.168 13.418h9.626l-8.313-12.397c3.063-1.386 5.396-4.668 5.396-8.46z"></path></g><g><path fill="#fff" d="M296.156 15.458L305.491.653h-9.408l-4.74 8.168-4.74-8.168h-9.408l9.262 14.877-9.772 16.044h9.48l5.178-9.116 5.178 9.116H306z"></path></g><g><path fill="#0093fa" d="M19.4-.003L4.813 31.574h5.105L24.504-.003z"></path></g><g><path fill="#0093fa" d="M12.399-.003H7.294L.001 15.749H5.18z"></path></g><g><path fill="#fff" d="M222.938 23.917c-4.23 0-7.73-3.5-7.73-7.73s3.5-7.73 7.73-7.73 7.73 3.5 7.73 7.73-3.5 7.73-7.73 7.73zm0-23.264c-8.606 0-15.534 7.001-15.534 15.534 0 8.605 7.001 15.533 15.534 15.533 8.605 0 15.533-7 15.533-15.533A15.5 15.5 0 0 0 222.937.653z"></path></g></g></g></svg> 